<svg id="Layer_1" data-name="Layer 1" xmlns="http://www.w3.org/2000/svg" viewBox="0 0 808.47 259.72"><defs><style>.cls-1,.cls-2{fill:#1d1d1b;}.cls-2{font-size:100px;font-family:SegoeUIBlack, Segoe UI;}.cls-3{font-size:70px;}</style></defs><rect class="cls-1" x="58.05" y="125.36" width="31.33" height="109.53"/><rect class="cls-1" x="115.66" y="75.78" width="31.33" height="173.04"/><rect class="cls-1" x="175.31" y="75.78" width="31.33" height="153.51"/><path class="cls-1" d="M185.7,456.4A106.35,106.35,0,0,1,382.77,401c.85,1.41,1.64,2.84,2.47,4.26s1.51,2.91,2.27,4.37c.39.72.71,1.48,1.05,2.22l.38.84.27.6c.35.81.75,1.58,1.05,2.41l-15.51,6.44c12.6,7.42,24.35,19.08,33.13,34.29a119.77,119.77,0,0,0,15.47-54.47l-15.5,6.44c-.36-1-.83-1.9-1.24-2.84l-.32-.71-.45-1c-.41-.88-.78-1.77-1.24-2.63-.89-1.71-1.74-3.46-2.68-5.15s-1.91-3.37-2.91-5A125.38,125.38,0,0,0,166.66,456.4Z" transform="translate(-160.71 -331.04)"/><path class="cls-1" d="M398.36,465.4a106.36,106.36,0,0,1-197.08,55.44c-.84-1.41-1.64-2.84-2.47-4.26s-1.5-2.92-2.26-4.37c-.4-.72-.71-1.48-1.05-2.22l-.38-.84-.27-.6c-.35-.81-.76-1.59-1-2.41l15.5-6.44c-12.59-7.42-24.34-19.08-33.12-34.3a119.73,119.73,0,0,0-15.47,54.48l15.5-6.44c.36,1,.83,1.9,1.24,2.84l.32.71.45,1c.4.88.78,1.77,1.24,2.63.89,1.71,1.73,3.46,2.67,5.15s1.91,3.37,2.92,5A125.38,125.38,0,0,0,417.4,465.4Z" transform="translate(-160.71 -331.04)"/><text class="cls-2" transform="translate(281.33 159.82)">P<tspan class="cls-3" x="65.58" y="0">YI SOE THEIN</tspan></text></svg>